<svg xmlns="http://www.w3.org/2000/svg" width="79.982" height="83.029"><path data-name="Shape 2" d="M77.957 0H66.033a2.017 2.017 0 00-2.025 2.025v4.163H15.861V2.025A2.017 2.017 0 0013.836 0H2.025A2.017 2.017 0 000 2.025v12.263a2.017 2.017 0 002.025 2.025h11.924a2.017 2.017 0 002.025-2.025v-4.163h22.161c-.225 4.95-12.262 28.239-19.911 41.965a2.083 2.083 0 00.45 2.475c6.862 5.85 8.549 11.588 9 14.513h-2.587a2.017 2.017 0 00-2.025 2.025v9.9a2.016 2.016 0 002.025 2.025H55.01a2.016 2.016 0 002.025-2.025v-9.9a2.017 2.017 0 00-2.025-2.025h-2.589c.45-2.925 2.137-8.663 9-14.513a2.054 2.054 0 00.45-2.475C54.222 38.364 42.185 14.963 41.96 10.125h22.048v4.163a2.017 2.017 0 002.025 2.025h11.924a2.017 2.017 0 002.025-2.025V2.025A2.017 2.017 0 0077.957 0zM11.924 12.263H3.937V3.937h7.987zm28.123 32.964a2.588 2.588 0 11-2.587 2.588 2.7 2.7 0 012.587-2.588zm13.049 33.639H27.111v-5.963h25.99zm-4.612-9.9H31.61c-.45-3.263-2.137-9.788-9.224-16.426 2.7-4.95 10.8-19.8 15.636-30.827v19.914a6.451 6.451 0 00-4.5 6.188 6.525 6.525 0 108.549-6.188V21.601C47.02 32.626 55.007 47.477 57.707 52.54c-7.086 6.638-8.773 13.163-9.223 16.426zm27.56-56.7h-7.987V4.053h7.987z" fill="#3c3c3c"/></svg>