<svg xmlns="http://www.w3.org/2000/svg" width="79.002" height="76.003"><path data-name="Shape 3" d="M2.079 76.006A2.09 2.09 0 010 73.906V2.1A2.089 2.089 0 012.079 0h74.844a2.089 2.089 0 012.079 2.1v71.806a2.09 2.09 0 01-2.079 2.1zm2.079-4.2h70.686v-56.72H4.158zm70.686-60.917v-6.69H4.158v6.69zm-38.4 42.479a1.838 1.838 0 01-1.312-2.234l4.623-18.281a1.82 1.82 0 113.525.908l-4.623 18.281a1.816 1.816 0 01-2.213 1.325zm12.235-4.723a1.849 1.849 0 010-2.6l4.365-4.406-4.375-4.416a1.849 1.849 0 010-2.6 1.808 1.808 0 012.572 0l5.661 5.713a1.847 1.847 0 010 2.6l-5.652 5.7a1.8 1.8 0 01-2.571 0zm-20.917 0l-5.66-5.713a1.849 1.849 0 010-2.6l5.65-5.7a1.806 1.806 0 012.572 0 1.847 1.847 0 010 2.6l-4.364 4.407 4.374 4.415a1.848 1.848 0 010 2.6 1.806 1.806 0 01-2.572 0zm-11.328-41.1a1.45 1.45 0 111.45 1.47 1.46 1.46 0 01-1.452-1.469zm-4.351 0a1.45 1.45 0 111.45 1.47 1.46 1.46 0 01-1.451-1.469zm-4.35 0a1.45 1.45 0 111.45 1.47 1.46 1.46 0 01-1.451-1.469z" fill="#3c3c3c"/></svg>