<svg xmlns="http://www.w3.org/2000/svg" width="78.991" height="90.987"><path data-name="Shape 4" d="M2.092 90.987A2.078 2.078 0 010 88.908V13.47a2.084 2.084 0 012.092-2.078h20.467a6.134 6.134 0 016.131-5.686h5.995a5.812 5.812 0 0111.623 0h5.985a6.137 6.137 0 016.141 5.686H76.9a2.085 2.085 0 012.092 2.078v75.438a2.079 2.079 0 01-2.092 2.079zm2.093-4.157h70.621V15.549H58.453v2.619a2.079 2.079 0 01-2.093 2.079H24.63a2.079 2.079 0 01-2.093-2.079v-2.619H4.184zm22.538-75v4.261h27.546V11.83a1.969 1.969 0 00-1.977-1.965h-6.539a3.627 3.627 0 01-3.63-3.606v-.478a1.627 1.627 0 00-3.254 0v.478a3.629 3.629 0 01-3.641 3.606h-6.539a1.968 1.968 0 00-1.967 1.964zm-6.064 65.838l-3.1-3.077a1.552 1.552 0 010-2.205 1.577 1.577 0 012.219 0l1.988 1.975 5.087-5.052a1.576 1.576 0 012.219 0 1.551 1.551 0 010 2.2l-6.195 6.154a1.577 1.577 0 01-2.22 0zm14.99-2.621a1.56 1.56 0 110-3.119h18.674a1.56 1.56 0 110 3.119zm-14.99-10.721l-3.1-3.077a1.552 1.552 0 010-2.2 1.577 1.577 0 012.219 0l1.988 1.975 5.087-5.052a1.575 1.575 0 012.219 0 1.552 1.552 0 010 2.2l-6.195 6.154a1.577 1.577 0 01-2.22 0zm14.99-2.621a1.559 1.559 0 110-3.117h18.674a1.559 1.559 0 110 3.117zM20.658 50.987l-3.1-3.077a1.552 1.552 0 010-2.205 1.577 1.577 0 012.219 0l1.988 1.975 5.087-5.052a1.576 1.576 0 012.219 0 1.551 1.551 0 010 2.205l-6.193 6.154a1.577 1.577 0 01-2.22 0zm14.99-2.619a1.559 1.559 0 110-3.118h18.674a1.559 1.559 0 110 3.118zm-14.99-10.721l-3.1-3.077a1.552 1.552 0 010-2.205 1.577 1.577 0 012.219 0l1.988 1.976 5.087-5.052a1.576 1.576 0 012.219 0 1.552 1.552 0 010 2.2l-6.195 6.154a1.577 1.577 0 01-2.22 0zm14.99-2.62a1.56 1.56 0 110-3.119h18.674a1.56 1.56 0 110 3.119zm2.832-22.9a2.01 2.01 0 112.011 2 2.005 2.005 0 01-2.01-2.001z" fill="#3c3c3c"/></svg>